<svg width="100" height="100" viewBox="0 0 100 100" fill="none" xmlns="http://www.w3.org/2000/svg">
<rect width="100" height="100" fill="#7133F9"/>
<path d="M36.7603 70.623H32.3169V57.6854C32.3169 56.2881 32.3726 54.745 32.484 53.0562H32.3726C32.1405 54.3831 31.9315 55.3381 31.7458 55.9212L27.0656 70.623H23.3883L18.6245 56.072C18.4945 55.6799 18.2855 54.6747 17.9977 53.0562H17.8723C17.993 55.1873 18.0534 57.0571 18.0534 58.6655V70.623H14V49H20.5885L24.6698 61.817C24.9948 62.8424 25.2316 63.8727 25.3802 64.9082H25.4637C25.7145 63.7119 25.9791 62.6715 26.2577 61.7868L30.3389 49H36.7603V70.623Z" fill="white"/>
<path d="M58.8659 70.623H53.9629L52.5421 65.8129H45.4382L44.0313 70.623H39.1561L46.4272 49H51.762L58.8659 70.623ZM51.5113 62.0733L49.3662 54.8053C49.2084 54.2625 49.0969 53.6141 49.0319 52.8602H48.9205C48.8741 53.4935 48.758 54.1218 48.5723 54.745L46.3993 62.0733H51.5113Z" fill="white"/>
<path d="M77.141 61.2591C77.141 67.753 74.3459 71 68.7557 71C63.3326 71 60.621 67.8284 60.621 61.4853V49H65.1341V61.5456C65.1341 65.0439 66.397 66.793 68.9228 66.793C71.4022 66.793 72.6419 65.1042 72.6419 61.7265V49H77.141V61.2591Z" fill="white"/>
<path d="M86 70.623H81.5009V49H86V70.623Z" fill="white"/>
<path d="M14.0068 39.1309V37.4561C14.1572 37.5928 14.335 37.7158 14.54 37.8252C14.7497 37.9346 14.9707 38.028 15.2031 38.1055C15.4355 38.1784 15.668 38.2354 15.9004 38.2764C16.1328 38.3174 16.347 38.3379 16.543 38.3379C17.2266 38.3379 17.7347 38.224 18.0674 37.9961C18.4046 37.7682 18.5732 37.4378 18.5732 37.0049C18.5732 36.7725 18.5163 36.5719 18.4023 36.4033C18.293 36.2301 18.138 36.0729 17.9375 35.9316C17.737 35.7904 17.5 35.6559 17.2266 35.5283C16.9577 35.3962 16.6683 35.2594 16.3584 35.1182C16.0257 34.9404 15.7158 34.7604 15.4287 34.5781C15.1416 34.3958 14.891 34.1953 14.6768 33.9766C14.4671 33.7533 14.3008 33.5026 14.1777 33.2246C14.0592 32.9466 14 32.6208 14 32.2471C14 31.7868 14.1025 31.388 14.3076 31.0508C14.5173 30.709 14.7907 30.4287 15.1279 30.21C15.4697 29.9867 15.8571 29.8226 16.29 29.7178C16.723 29.6084 17.165 29.5537 17.6162 29.5537C18.6416 29.5537 19.389 29.6699 19.8584 29.9023V31.5088C19.3024 31.1077 18.5869 30.9072 17.7119 30.9072C17.4704 30.9072 17.2288 30.93 16.9873 30.9756C16.7503 31.0212 16.5361 31.0964 16.3447 31.2012C16.1579 31.306 16.0052 31.4404 15.8867 31.6045C15.7682 31.7686 15.709 31.9668 15.709 32.1992C15.709 32.418 15.7546 32.6071 15.8457 32.7666C15.9368 32.9261 16.069 33.0719 16.2422 33.2041C16.4199 33.3363 16.6341 33.4661 16.8848 33.5938C17.14 33.7168 17.4339 33.8512 17.7666 33.9971C18.1084 34.1748 18.4297 34.3617 18.7305 34.5576C19.0358 34.7536 19.3024 34.9701 19.5303 35.207C19.7627 35.444 19.945 35.7083 20.0771 36C20.2139 36.2871 20.2822 36.6152 20.2822 36.9844C20.2822 37.4811 20.182 37.9004 19.9814 38.2422C19.7809 38.584 19.5098 38.862 19.168 39.0762C18.8307 39.2904 18.4411 39.4453 17.999 39.541C17.557 39.6367 17.0898 39.6846 16.5977 39.6846C16.4336 39.6846 16.2308 39.6709 15.9893 39.6436C15.7523 39.6208 15.5085 39.5843 15.2578 39.5342C15.0072 39.4886 14.7702 39.4316 14.5469 39.3633C14.3236 39.2949 14.1436 39.2174 14.0068 39.1309Z" fill="white"/>
<path d="M28.1909 32.5205L25.0327 40.6416C24.3764 42.0908 23.4558 42.8154 22.2709 42.8154C21.9383 42.8154 21.6603 42.7858 21.437 42.7266V41.4072C21.6876 41.4893 21.9155 41.5303 22.1205 41.5303C22.713 41.5303 23.1551 41.2386 23.4467 40.6553L23.9184 39.5068L21.1362 32.5205H22.893L24.561 37.6064C24.5792 37.6702 24.6202 37.8389 24.684 38.1123H24.7182C24.741 38.0075 24.782 37.8434 24.8412 37.6201L26.5912 32.5205H28.1909Z" fill="white"/>
<path d="M36.0448 39.5205H34.4589V35.5762C34.4589 34.2682 33.9963 33.6143 33.0712 33.6143C32.5881 33.6143 32.1893 33.7965 31.8749 34.1611C31.5604 34.5212 31.4032 34.9769 31.4032 35.5283V39.5205H29.8104V32.5205H31.4032V33.6826H31.4305C31.9546 32.7985 32.7111 32.3564 33.7001 32.3564C34.4611 32.3564 35.0422 32.6048 35.4432 33.1016C35.8443 33.5938 36.0448 34.307 36.0448 35.2412V39.5205Z" fill="white"/>
<path d="M43.557 39.1992C42.9964 39.5228 42.3333 39.6846 41.5677 39.6846C40.5286 39.6846 39.6901 39.361 39.0521 38.7139C38.414 38.0622 38.095 37.2191 38.095 36.1846C38.095 35.0316 38.4368 34.1064 39.1204 33.4092C39.8086 32.7074 40.7269 32.3564 41.8753 32.3564C42.5133 32.3564 43.0762 32.4681 43.5638 32.6914V34.168C43.0762 33.8034 42.5566 33.6211 42.0052 33.6211C41.3353 33.6211 40.7861 33.849 40.3577 34.3047C39.9293 34.7559 39.7152 35.3483 39.7152 36.082C39.7152 36.8066 39.9157 37.3786 40.3167 37.7979C40.7223 38.2171 41.2646 38.4268 41.9437 38.4268C42.5133 38.4268 43.0511 38.224 43.557 37.8184V39.1992Z" fill="white"/>
<path d="M49.6541 30.4492C49.4399 30.3262 49.1961 30.2646 48.9226 30.2646C48.1524 30.2646 47.7673 30.6999 47.7673 31.5703V32.5205H49.3943V33.7646H47.7742V39.5205H46.1882V33.7646H44.992V32.5205H46.1882V31.3857C46.1882 30.6475 46.4298 30.0664 46.9128 29.6426C47.3959 29.2142 47.9998 29 48.7244 29C49.1163 29 49.4262 29.0433 49.6541 29.1299V30.4492Z" fill="white"/>
<path d="M57.1867 39.5205H55.6008V38.4131H55.5734C55.1132 39.2607 54.3977 39.6846 53.427 39.6846C51.7727 39.6846 50.9455 38.6911 50.9455 36.7041V32.5205H52.5314V36.54C52.5314 37.7979 53.0168 38.4268 53.9875 38.4268C54.4569 38.4268 54.842 38.2536 55.1428 37.9072C55.4481 37.5609 55.6008 37.1074 55.6008 36.5469V32.5205H57.1867V39.5205Z" fill="white"/>
<path d="M59.3805 39.3018V37.832C59.973 38.2832 60.6269 38.5088 61.3424 38.5088C62.2995 38.5088 62.778 38.2262 62.778 37.6611C62.778 37.5016 62.737 37.3672 62.6549 37.2578C62.5729 37.1439 62.4612 37.0436 62.32 36.957C62.1832 36.8704 62.0192 36.793 61.8278 36.7246C61.6409 36.6562 61.4313 36.5788 61.1989 36.4922C60.9118 36.3783 60.652 36.2575 60.4196 36.1299C60.1917 36.0023 60.0003 35.8587 59.8454 35.6992C59.695 35.5352 59.581 35.3506 59.5036 35.1455C59.4261 34.9404 59.3873 34.7012 59.3873 34.4277C59.3873 34.0905 59.4671 33.7943 59.6266 33.5391C59.7861 33.2793 60.0003 33.0628 60.2692 32.8896C60.5381 32.7119 60.8434 32.5798 61.1852 32.4932C61.527 32.402 61.8802 32.3564 62.2448 32.3564C62.8919 32.3564 63.4707 32.4544 63.9811 32.6504V34.0381C63.4889 33.7008 62.9238 33.5322 62.2858 33.5322C62.0853 33.5322 61.903 33.5527 61.7389 33.5938C61.5794 33.6348 61.4427 33.6917 61.3288 33.7646C61.2148 33.8376 61.126 33.9264 61.0621 34.0312C60.9983 34.1315 60.9664 34.2432 60.9664 34.3662C60.9664 34.5166 60.9983 34.6442 61.0621 34.749C61.126 34.8538 61.2194 34.9473 61.3424 35.0293C61.47 35.1068 61.6204 35.1797 61.7936 35.248C61.9713 35.3118 62.1741 35.3825 62.402 35.46C62.7028 35.583 62.9717 35.7083 63.2086 35.8359C63.4502 35.9635 63.6552 36.1094 63.8239 36.2734C63.9925 36.4329 64.1224 36.6198 64.2135 36.834C64.3047 37.0436 64.3502 37.2943 64.3502 37.5859C64.3502 37.9414 64.2682 38.2513 64.1041 38.5156C63.9401 38.7799 63.7213 38.9987 63.4479 39.1719C63.1745 39.3451 62.8577 39.4727 62.4977 39.5547C62.1422 39.6413 61.7663 39.6846 61.3698 39.6846C60.6041 39.6846 59.9411 39.557 59.3805 39.3018Z" fill="white"/>
<path d="M67.2208 31.0508C66.961 31.0508 66.7377 30.9665 66.5509 30.7979C66.3686 30.6292 66.2774 30.415 66.2774 30.1553C66.2774 29.8955 66.3686 29.679 66.5509 29.5059C66.7377 29.3327 66.961 29.2461 67.2208 29.2461C67.4897 29.2461 67.7175 29.3327 67.9044 29.5059C68.0912 29.679 68.1846 29.8955 68.1846 30.1553C68.1846 30.4014 68.0912 30.6133 67.9044 30.791C67.7175 30.9642 67.4897 31.0508 67.2208 31.0508ZM68.0069 39.5205H66.421V32.5205H68.0069V39.5205Z" fill="white"/>
<path d="M73.7486 39.6846C72.6685 39.6846 71.8049 39.3587 71.1577 38.707C70.5152 38.0508 70.1939 37.1826 70.1939 36.1025C70.1939 34.9268 70.5288 34.0085 71.1987 33.3477C71.8732 32.6868 72.7801 32.3564 73.9195 32.3564C75.0132 32.3564 75.8654 32.6777 76.4761 33.3203C77.0868 33.9629 77.3921 34.8538 77.3921 35.9932C77.3921 37.1097 77.0617 38.0052 76.4009 38.6797C75.7446 39.3496 74.8605 39.6846 73.7486 39.6846ZM73.8237 33.6211C73.204 33.6211 72.714 33.8376 72.354 34.2705C71.994 34.7035 71.814 35.3005 71.814 36.0615C71.814 36.7952 71.9963 37.374 72.3609 37.7979C72.7254 38.2171 73.2131 38.4268 73.8237 38.4268C74.4481 38.4268 74.9266 38.2194 75.2593 37.8047C75.5965 37.39 75.7652 36.7998 75.7652 36.0342C75.7652 35.264 75.5965 34.6693 75.2593 34.25C74.9266 33.8307 74.4481 33.6211 73.8237 33.6211Z" fill="white"/>
<path d="M85.8066 39.5205H84.2207V35.5762C84.2207 34.2682 83.7581 33.6143 82.833 33.6143C82.3499 33.6143 81.9511 33.7965 81.6367 34.1611C81.3222 34.5212 81.165 34.9769 81.165 35.5283V39.5205H79.5722V32.5205H81.165V33.6826H81.1923C81.7164 32.7985 82.4729 32.3564 83.4619 32.3564C84.2229 32.3564 84.804 32.6048 85.205 33.1016C85.6061 33.5938 85.8066 34.307 85.8066 35.2412V39.5205Z" fill="white"/>
</svg>
